<?xml version="1.0" encoding="utf-8"?>
<!-- Generator: Adobe Illustrator 24.2.3, SVG Export Plug-In . SVG Version: 6.00 Build 0)  -->
<svg version="1.1" id="Capa_1" xmlns="http://www.w3.org/2000/svg" xmlns:xlink="http://www.w3.org/1999/xlink" x="0px" y="0px"
	 viewBox="0 0 1934.5 422.6" style="enable-background:new 0 0 1934.5 422.6;" xml:space="preserve">
<style type="text/css">
	.st0{fill:url(#SVGID_1_);}
	.st1{fill:url(#SVGID_2_);}
	.st2{fill:url(#SVGID_3_);}
	.st3{fill:url(#SVGID_4_);}
	.st4{fill:url(#SVGID_5_);}
	.st5{fill:url(#SVGID_6_);}
	.st6{fill:#F8F7F7;}
</style>
<g>
	<linearGradient id="SVGID_1_" gradientUnits="userSpaceOnUse" x1="78.2343" y1="205.3164" x2="216.4956" y2="205.3164">
		<stop  offset="0" style="stop-color:#FEE900"/>
		<stop  offset="0.2235" style="stop-color:#FCE800"/>
		<stop  offset="0.3869" style="stop-color:#F4E400"/>
		<stop  offset="0.5312" style="stop-color:#E8DE03"/>
		<stop  offset="0.6645" style="stop-color:#D5D615"/>
		<stop  offset="0.7902" style="stop-color:#BBCB23"/>
		<stop  offset="0.9086" style="stop-color:#98BE2E"/>
		<stop  offset="0.997" style="stop-color:#73B235"/>
	</linearGradient>
	<path class="st0" d="M118.3,51.4c7.9,15,66.5,94.6,42.4,184.3c-21.2,79-69.2,123.6-69.2,123.6c22.3-12.3,44.2-25.5,65.4-39.8
		c20.1-13.5,42.6-34.8,52.8-58.1c15.8-35.8,7-76.8-9.8-110.6c-6.4-12.9-25.6-47.2-34.1-58.8c-4.3-5.9-28.6-23.7-35.4-29.8
		c-2.9-2.5-5.7-5.1-8.6-7.6C121.4,54.2,118.3,52,118.3,51.4z"/>
	<linearGradient id="SVGID_2_" gradientUnits="userSpaceOnUse" x1="38.8309" y1="253.284" x2="156.4448" y2="253.284">
		<stop  offset="0" style="stop-color:#DA1E1A"/>
		<stop  offset="8.780269e-02" style="stop-color:#DB291A"/>
		<stop  offset="0.2286" style="stop-color:#DD421B"/>
		<stop  offset="0.4048" style="stop-color:#E3661B"/>
		<stop  offset="0.6095" style="stop-color:#EB9317"/>
		<stop  offset="0.8353" style="stop-color:#F5C507"/>
		<stop  offset="1" style="stop-color:#FEE900"/>
	</linearGradient>
	<path class="st1" d="M140.3,129.6c4.9,10.7,14.5,57.6,7,94.7c-8.6,42.3-31.3,85.5-84.6,152.7c0,0-42.4-72.9,0-140.5
		C105.6,167.8,119.4,152.7,140.3,129.6z"/>
	<linearGradient id="SVGID_3_" gradientUnits="userSpaceOnUse" x1="-1.0803" y1="321.6044" x2="47.9566" y2="321.6044">
		<stop  offset="0" style="stop-color:#D80E79"/>
		<stop  offset="0.2069" style="stop-color:#D91661"/>
		<stop  offset="0.4099" style="stop-color:#DA1A4B"/>
		<stop  offset="0.5963" style="stop-color:#DA1C37"/>
		<stop  offset="0.7626" style="stop-color:#DA1D27"/>
		<stop  offset="0.9028" style="stop-color:#DA1D1E"/>
		<stop  offset="1" style="stop-color:#DA1E1A"/>
	</linearGradient>
	<path class="st2" d="M53.1,380.9c0,0-42.3-42.3-15.6-118.6c0,0-46.9,59.7-35.8,80C12.7,362.5,53.1,380.9,53.1,380.9z"/>
	<linearGradient id="SVGID_4_" gradientUnits="userSpaceOnUse" x1="278.4776" y1="215.2106" x2="278.4776" y2="106.877">
		<stop  offset="0" style="stop-color:#8C1F7A"/>
		<stop  offset="0.2743" style="stop-color:#8E1F7A"/>
		<stop  offset="0.4508" style="stop-color:#941E7A"/>
		<stop  offset="0.5999" style="stop-color:#9E1D7A"/>
		<stop  offset="0.7336" style="stop-color:#AC1A79"/>
		<stop  offset="0.857" style="stop-color:#BE1679"/>
		<stop  offset="0.9714" style="stop-color:#D31079"/>
		<stop  offset="1" style="stop-color:#D80E79"/>
	</linearGradient>
	<path class="st3" d="M283.1,133.8c49,22,79.5,46.6,84.2,51.8c1.8,6.9,4.9,27.3,4.8,33.9c0,0-49.5-40.2-95.4-63.6
		c-31.5-16-77.8-31.6-77.8-31.6c-4.8-8.8-10-15.3-14.2-20.6C222.6,110.5,250.4,119.1,283.1,133.8z"/>
	<linearGradient id="SVGID_5_" gradientUnits="userSpaceOnUse" x1="210.9484" y1="275.9261" x2="276.5865" y2="275.9261">
		<stop  offset="0" style="stop-color:#73B235"/>
		<stop  offset="0.1048" style="stop-color:#71B13A"/>
		<stop  offset="0.2341" style="stop-color:#69AF47"/>
		<stop  offset="0.3761" style="stop-color:#5CAD5C"/>
		<stop  offset="0.5272" style="stop-color:#44A978"/>
		<stop  offset="0.6857" style="stop-color:#00A598"/>
		<stop  offset="0.8477" style="stop-color:#00A0B9"/>
		<stop  offset="1" style="stop-color:#009AD8"/>
	</linearGradient>
	<path class="st4" d="M203.6,299.3c0,0,23.6-19.7,26.5-55.8c1.8-22.5,0.9-62.1-20.9-95.9c0,0,104,102,65.2,256.7
		C274.5,404.3,250,295.7,203.6,299.3z"/>
	<linearGradient id="SVGID_6_" gradientUnits="userSpaceOnUse" x1="214.1797" y1="318.4732" x2="337.9545" y2="194.6984">
		<stop  offset="0" style="stop-color:#009AD8"/>
		<stop  offset="1" style="stop-color:#8C1F7A"/>
	</linearGradient>
	<path class="st5" d="M214.7,142.5c0,0,49.1,36.9,71.8,107c13.2,40.7,25.8,111.7-3.4,167.1c0,0,101.1-54.1,94.5-176.8
		C377.6,239.9,291.5,162.4,214.7,142.5z"/>
</g>
<g>
	<g>
		<path class="st6" d="M652.9,96.5c35.2,0,52.8,17.6,52.8,52.8v15.1c0,22.1-8.6,34.7-25.7,37.7c17.1,3,25.7,15.6,25.7,37.7V255
			c0,35.2-17.6,52.8-52.8,52.8h-83V96.5H652.9z M600.1,126.7v60.4h52.8c15.1,0,22.6-7.5,22.6-22.6v-15.1c0-15.1-7.5-22.6-22.6-22.6
			H600.1z M600.1,217.3v60.4h52.8c15.1,0,22.6-7.5,22.6-22.6v-15.1c0-15.1-7.5-22.6-22.6-22.6H600.1z"/>
		<path class="st6" d="M895.2,96.5V255c0,35.2-17.6,52.8-52.8,52.8h-37.7c-35.2,0-52.8-17.6-52.8-52.8V96.5H782V255
			c0,15.1,7.5,22.6,22.6,22.6h37.7c15.1,0,22.6-7.5,22.6-22.6V96.5H895.2z"/>
		<path class="st6" d="M971.4,255c0,15.1,7.5,22.6,22.6,22.6h67.9v30.2H994c-35.2,0-52.8-17.6-52.8-52.8V149.3
			c0-35.2,17.6-52.8,52.8-52.8h67.9v30.2H994c-15.1,0-22.6,7.5-22.6,22.6V255z"/>
		<path class="st6" d="M1228.7,187.1v30.2h-90.6v60.4h90.6v30.2h-120.8V96.5h120.8v30.2h-90.6v60.4H1228.7z"/>
		<path class="st6" d="M1395.5,187.1v30.2h-90.6v90.6h-30.2V96.5h120.8v30.2h-90.6v60.4H1395.5z"/>
		<path class="st6" d="M1592.4,307.9h-30.2l-14-45.3h-77.6l-14,45.3h-30.2l63.4-211.4h39.3L1592.4,307.9z M1479.8,232.4h59.2
			l-29.6-105.7L1479.8,232.4z"/>
		<path class="st6" d="M1653.5,277.7h90.6v30.2h-120.8V96.5h30.2V277.7z"/>
		<path class="st6" d="M1933.5,255c0,35.2-17.6,52.8-52.8,52.8h-37.7c-35.2,0-52.8-17.6-52.8-52.8V149.3c0-35.2,17.6-52.8,52.8-52.8
			h37.7c35.2,0,52.8,17.6,52.8,52.8V255z M1820.3,255c0,15.1,7.5,22.6,22.6,22.6h37.7c15.1,0,22.6-7.5,22.6-22.6V149.3
			c0-15.1-7.5-22.6-22.6-22.6h-37.7c-15.1,0-22.6,7.5-22.6,22.6V255z"/>
	</g>
	<g>
		<path class="st6" d="M602.3,404.5h-20l-4,11.8h-8.4l19.1-52.6h6.7l19.1,52.6h-8.4L602.3,404.5z M600.1,397.4l-7.6-23h-0.1l-7.6,23
			H600.1z"/>
		<path class="st6" d="M710.4,363.6h19c2.1,0,4.1,0.2,6,0.6c1.9,0.5,3.9,1.5,5.8,3.1c1.7,1.2,3,2.9,4,5c1.1,2.1,1.6,4.6,1.6,7.5
			c0,3.9-1.4,7.4-4.1,10.6c-2.8,3.4-6.9,5.1-12.3,5.2h-12.1v20.5h-8V363.6z M718.4,388.1h11.8c3,0,5.2-1,6.7-2.7
			c1.4-1.7,2.1-3.7,2.1-5.8c0-1.8-0.3-3.2-0.9-4.4c-0.6-1.1-1.4-1.9-2.5-2.6c-1.6-1-3.5-1.5-5.7-1.5h-11.5V388.1z"/>
		<path class="st6" d="M843.4,363.6h19c2.1,0,4.1,0.2,6,0.6c1.9,0.5,3.9,1.5,5.8,3.1c1.7,1.2,3,2.9,4,5c1.1,2.1,1.6,4.6,1.6,7.5
			c0,3.9-1.4,7.4-4.1,10.6c-2.8,3.4-6.9,5.1-12.3,5.2h-12.1v20.5h-8V363.6z M851.3,388.1h11.8c3,0,5.2-1,6.7-2.7
			c1.4-1.7,2.1-3.7,2.1-5.8c0-1.8-0.3-3.2-0.9-4.4c-0.6-1.1-1.4-1.9-2.5-2.6c-1.6-1-3.5-1.5-5.7-1.5h-11.5V388.1z"/>
		<path class="st6" d="M992.8,408.7c6.8-0.1,10.3-2.5,10.4-7.3c0-3.9-2.2-6.3-6.9-7.1c-2.1-0.3-4.4-0.6-7-1c-4.5-0.7-8-2.4-10.3-5
			c-2.4-2.7-3.6-5.9-3.6-9.7c0-4.6,1.5-8.3,4.6-11.1c3-2.8,7.2-4.2,12.6-4.3c6.5,0.1,12.2,2,17.1,5.4l-4.4,6.6
			c-3.9-2.6-8.3-3.9-13-4c-2.4,0-4.5,0.6-6.1,1.8c-1.7,1.3-2.6,3.2-2.6,5.7c0,1.5,0.6,2.9,1.8,4.1c1.2,1.2,3.1,2.1,5.7,2.6
			c1.4,0.2,3.4,0.5,5.9,0.8c4.9,0.7,8.6,2.4,10.9,5.3c2.3,2.8,3.5,6.1,3.5,9.8c-0.3,10-6.4,15.1-18.5,15.3c-7.8,0-14.5-2.4-20.1-7.2
			l5.2-6C982,406.9,987,408.6,992.8,408.7z"/>
		<path class="st6" d="M1191.6,410.9c-2.1,1.6-4.4,3-6.9,4c-2.4,1.1-5,1.6-7.8,1.7c-5-0.1-9-1.7-12-4.9c-3.1-3.1-4.6-6.9-4.7-11.3
			c0-6.6,3.4-11.7,10-15.4c-1.3-1.5-2.3-3.1-3-4.8c-0.9-1.7-1.3-3.4-1.3-5.2c0-3.3,1.1-6.1,3.2-8.4c2.1-2.3,5-3.5,8.6-3.5
			c3.6,0,6.5,1.2,8.6,3.5c2.1,2.3,3.2,5.1,3.2,8.4c0.1,4.9-2.8,8.8-8.8,11.8l11.2,13.5c2.1-2.7,3.6-5.7,4.6-8.8l6.7,2.7
			c-0.7,2-1.7,3.9-2.9,5.9c-1.2,2-2.5,3.8-4,5.4l8.9,10.6h-8.9L1191.6,410.9z M1174.5,390.1c-5.1,3-7.7,6.4-7.6,10.3
			c0,2.7,1,5,3,6.8c1.9,1.9,4.1,2.8,6.8,2.8c3.4,0,6.9-1.5,10.6-4.7L1174.5,390.1z M1172.6,374.8c0,1.1,0.4,2.2,1.2,3.3
			c0.7,1.2,1.6,2.3,2.7,3.4c2.4-1,4.1-2,5.1-3.1c0.9-1.1,1.3-2.3,1.3-3.6c0-1.4-0.5-2.6-1.4-3.6c-1-0.9-2.2-1.4-3.8-1.4
			c-1.5,0-2.7,0.5-3.6,1.4C1173.1,372.2,1172.6,373.4,1172.6,374.8z"/>
		<path class="st6" d="M1371.2,387.2h18.7V398c-0.1,5.3-1.9,9.7-5.4,13.2c-3.5,3.5-8,5.3-13.3,5.4c-4.1-0.1-7.6-1.1-10.4-3
			c-2.8-1.9-4.9-4-6.1-6.4c-0.4-0.8-0.7-1.6-1-2.3c-0.3-0.7-0.5-1.7-0.7-2.8c-0.4-2.1-0.5-6.2-0.5-12.2c0-6.1,0.2-10.2,0.5-12.3
			c0.4-2.1,1-3.7,1.8-5c1.3-2.4,3.3-4.6,6.1-6.5c2.8-1.9,6.2-2.9,10.4-3c5.1,0,9.2,1.6,12.4,4.5c3.2,3,5.2,6.7,6.1,11.1h-8.4
			c-0.7-2.1-1.8-3.9-3.5-5.4c-1.8-1.4-3.9-2.1-6.5-2.2c-1.9,0-3.5,0.4-4.8,1.1c-1.4,0.7-2.5,1.6-3.3,2.7c-1,1.1-1.7,2.6-2.1,4.4
			c-0.4,1.9-0.6,5.4-0.6,10.6c0,5.2,0.2,8.7,0.6,10.5c0.3,1.8,1,3.3,2.1,4.4c0.8,1.1,1.9,2,3.3,2.6c1.3,0.8,3,1.2,4.8,1.2
			c3.1,0,5.7-1.1,7.7-3.2c2-2,3.1-4.7,3.1-8v-2.7h-10.7V387.2z"/>
		<path class="st6" d="M1514.6,404.5h-19.9l-4,11.8h-8.4l19.1-52.6h6.7l19.1,52.6h-8.4L1514.6,404.5z M1512.4,397.4l-7.6-23h-0.1
			l-7.6,23H1512.4z"/>
		<path class="st6" d="M1622.7,363.6h7.5l15.1,34.3l14.8-34.3h7.5v52.6h-8v-32.8h-0.2l-11,25.3h-6.6l-11-25.3h-0.1v32.8h-8V363.6z"
			/>
		<path class="st6" d="M1767.2,363.6h33.6v7.5h-25.6v15h21.9v7.1h-21.9v15.4h25.6v7.5h-33.6V363.6z"/>
		<path class="st6" d="M1915.1,408.7c6.8-0.1,10.3-2.5,10.4-7.3c0-3.9-2.2-6.3-6.9-7.1c-2.1-0.3-4.4-0.6-7-1c-4.5-0.7-8-2.4-10.3-5
			c-2.4-2.7-3.6-5.9-3.6-9.7c0-4.6,1.5-8.3,4.6-11.1c3-2.8,7.2-4.2,12.6-4.3c6.5,0.1,12.2,2,17.1,5.4l-4.4,6.6
			c-3.9-2.6-8.3-3.9-13-4c-2.5,0-4.5,0.6-6.1,1.8c-1.7,1.3-2.6,3.2-2.6,5.7c0,1.5,0.6,2.9,1.8,4.1c1.2,1.2,3.1,2.1,5.7,2.6
			c1.4,0.2,3.4,0.5,5.9,0.8c4.9,0.7,8.6,2.4,10.9,5.3c2.3,2.8,3.5,6.1,3.5,9.8c-0.3,10-6.4,15.1-18.5,15.3c-7.8,0-14.5-2.4-20.1-7.2
			l5.2-6C1904.4,406.9,1909.3,408.6,1915.1,408.7z"/>
	</g>
</g>
</svg>
